<svg width="72" height="72" viewBox="0 0 72 72" fill="none" xmlns="http://www.w3.org/2000/svg">
<circle cx="37" cy="35" r="33" fill="white"/>
<path d="M33.7429 25.8426C33.5311 25.7739 33.2488 25.8426 33.037 25.8426L24.8488 27.6955C24.0723 27.97 23.5782 28.6563 23.5782 29.4112C23.5782 30.921 23.5782 32.6367 23.5782 33.1857C23.5782 34.1465 24.4958 34.8328 25.4841 34.6269C27.39 34.2151 27.6017 34.1465 27.9547 34.0092V48.6955C27.9547 49.7249 28.8017 50.6171 29.9311 50.6171H33.2488C34.3076 50.6171 35.2253 49.7935 35.2253 48.6955V27.6955C35.2958 26.8034 34.59 25.9798 33.7429 25.8426Z" fill="black"/>
<path d="M36 71C55.9059 71 72 55.3529 72 36C72 16.6471 55.9059 1 36 1C16.1647 1 0 16.6471 0 36C0 55.3529 16.0941 71 36 71ZM6.21176 37.1667C6.21176 20.8333 19.8353 7.58824 36.6353 7.58824C53.4353 7.58824 67.0588 20.8333 67.0588 37.1667C67.0588 53.5 53.4353 66.7451 36.6353 66.7451C19.8353 66.7451 6.21176 53.5 6.21176 37.1667Z" fill="url(#paint0_linear)"/>
<path d="M69.0324 31.3328C69.0324 44.7838 57.8089 55.6956 43.9736 55.6956C43.2677 55.6956 42.5619 55.6956 41.856 55.6269C39.103 57.3426 35.856 58.4407 32.3971 58.7152C35.5736 59.8818 39.0324 60.5681 42.6324 60.5681C58.4442 60.5681 71.2913 48.0779 71.2913 32.7054C71.2913 29.7544 70.7972 26.872 69.9501 24.1269C68.8207 21.0387 67.2678 18.225 65.2913 15.6171C60.0677 9.02889 51.8795 4.84261 42.6324 4.84261C29.5736 4.77398 18.6324 13.1465 15.103 24.7446C16.9383 22.7544 19.2677 21.1073 21.8089 19.9407C26.0442 12.1857 34.3736 6.97006 43.9736 6.97006C57.8089 6.97006 69.0324 17.8818 69.0324 31.3328Z" fill="url(#paint1_linear)"/>
<path d="M17.5023 54.2555C15.5258 52.6771 13.8317 50.8241 12.5611 48.6967C14.9611 61.0496 26.0435 70.3143 39.3846 70.3143C54.4905 70.3143 66.7023 58.4418 66.7023 43.7555C66.7023 29.0692 54.4905 17.1967 39.3846 17.1967C37.0552 17.1967 34.7258 17.4712 32.467 18.0202C34.6552 18.2261 36.7023 18.7065 38.6082 19.4614C51.2435 19.8732 61.4082 30.03 61.4082 42.383C61.4082 55.079 50.8199 65.3732 37.7611 65.3732C29.1493 65.3732 21.667 60.9124 17.5023 54.2555Z" fill="url(#paint2_linear)"/>
<path d="M28.6609 66.8817C43.7668 66.8817 55.9785 55.0091 55.9785 40.3229C55.9785 25.6366 43.7668 13.764 28.6609 13.764C13.555 13.764 1.34326 25.6366 1.34326 40.3229C1.34326 55.0091 13.555 66.8817 28.6609 66.8817ZM9.74326 38.3327C9.74326 27.0778 19.1315 17.9503 30.708 17.9503C42.2844 17.9503 51.6727 27.0778 51.6727 38.3327C51.6727 49.5876 42.2844 58.715 30.708 58.715C19.1315 58.715 9.74326 49.5876 9.74326 38.3327Z" fill="url(#paint3_linear)"/>
<defs>
<linearGradient id="paint0_linear" x1="2.91155" y1="30.7625" x2="54.4506" y2="39.3933" gradientUnits="userSpaceOnUse">
<stop stop-color="#CF1818"/>
<stop offset="1" stop-color="#DD4C2F"/>
</linearGradient>
<linearGradient id="paint1_linear" x1="38.9802" y1="14.2188" x2="44.9603" y2="32.4456" gradientUnits="userSpaceOnUse">
<stop stop-color="#DD4C2F"/>
<stop offset="1" stop-color="#CF1818"/>
</linearGradient>
<linearGradient id="paint2_linear" x1="30.0756" y1="65.7379" x2="48.8343" y2="32.705" gradientUnits="userSpaceOnUse">
<stop stop-color="#DD4C2F"/>
<stop offset="1" stop-color="#CF1818"/>
</linearGradient>
<linearGradient id="paint3_linear" x1="6.9695" y1="40.1536" x2="46.0102" y2="40.4759" gradientUnits="userSpaceOnUse">
<stop stop-color="#CF1818"/>
<stop offset="1" stop-color="#DD4C2F"/>
</linearGradient>
</defs>
</svg>
